<svg width="48" height="48" viewBox="0 0 48 48" fill="none" xmlns="http://www.w3.org/2000/svg">
   <path
      d="M27.0236 42.9734C26.0844 42.9734 25.3242 42.2132 25.3242 41.2742C25.3242 40.3352 26.0844 39.575 27.0236 39.575C31.1254 39.575 35.1577 37.8709 38.0869 34.8998C41.0285 31.9162 42.6161 27.9937 42.559 23.8575C42.5441 22.8365 42.4298 21.8155 42.2211 20.8194C42.0944 20.2157 42.3031 19.5922 42.7677 19.1872C43.9329 18.1737 44.6012 16.708 44.6012 15.1678C44.6012 12.229 42.2111 9.83921 39.272 9.83921C38.3304 9.83921 37.4037 10.0901 36.5913 10.5621C36.0571 10.8726 35.3987 10.8702 34.867 10.5571C32.4869 9.14612 29.754 8.39838 26.9689 8.39838C26.0298 8.39838 25.2695 7.63821 25.2695 6.69919C25.2695 5.76016 26.0298 5 26.9689 5C30.0472 5 33.0733 5.74774 35.7764 7.17119C36.8745 6.69174 38.067 6.44083 39.272 6.44083C44.0844 6.44083 48 10.3559 48 15.1678C48 17.3539 47.1776 19.4481 45.7192 21.0479C45.8658 21.9596 45.9453 22.8862 45.9577 23.8103C46.0298 28.8632 44.0944 33.6502 40.5093 37.2871C36.9466 40.9016 32.0298 42.9759 27.0261 42.9759L27.0236 42.9734Z"
      fill="url(#paint0_linear_16_9)"/>
   <path
      d="M33.8137 23.1346L30.8224 20.1014C30.4969 19.6965 29.9975 19.4357 29.436 19.4357C28.4522 19.4357 27.6547 20.2331 27.6547 21.2168C27.6547 21.5472 27.7441 21.8578 27.9031 22.1236C27.9155 22.1459 27.9329 22.1658 27.9453 22.1882H27.9429L30.0621 26.0784C30.4671 26.851 31.277 27.3776 32.2112 27.3776C33.5503 27.3776 34.636 26.292 34.636 24.9531C34.636 24.2277 34.3155 23.5793 33.8137 23.1346Z"
      fill="#3ECC99"/>
   <path
      d="M20.9739 42.9734C21.913 42.9734 22.6733 42.2132 22.6733 41.2742C22.6733 40.3352 21.913 39.575 20.9739 39.575C16.872 39.575 12.8398 37.8709 9.91056 34.8998C6.96894 31.9162 5.38137 27.9937 5.43851 23.8575C5.45342 22.8365 5.5677 21.8155 5.7764 20.8194C5.9031 20.2157 5.69441 19.5922 5.22981 19.1872C4.0646 18.1737 3.39627 16.708 3.39627 15.1678C3.39627 12.229 5.78633 9.83921 8.72546 9.83921C9.66708 9.83921 10.5938 10.0901 11.4062 10.5621C11.9404 10.8726 12.5988 10.8702 13.1304 10.5571C15.5106 9.14612 18.2435 8.39838 21.0286 8.39838C21.9677 8.39838 22.7279 7.63821 22.7279 6.69919C22.7304 5.76016 21.9702 5 21.0311 5C17.9528 5 14.9267 5.74774 12.2236 7.17119C11.1255 6.69174 9.93292 6.44083 8.72795 6.44083C3.91553 6.44083 0 10.3559 0 15.1678C0 17.3539 0.82236 19.4481 2.28075 21.0479C2.13416 21.9596 2.05466 22.8862 2.04224 23.8103C1.97019 28.8632 3.90559 33.6502 7.49068 37.2871C11.0534 40.9016 15.9702 42.9759 20.9739 42.9759V42.9734Z"
      fill="url(#paint1_linear_16_9)"/>
   <path
      d="M14.1839 23.1346L17.1752 20.1014C17.5006 19.6965 18 19.4357 18.5615 19.4357C19.5454 19.4357 20.3429 20.2331 20.3429 21.2168C20.3429 21.5472 20.2534 21.8578 20.0944 22.1236C20.082 22.1459 20.0646 22.1658 20.0522 22.1882H20.0547L17.9354 26.0784C17.5305 26.851 16.7205 27.3776 15.7864 27.3776C14.4472 27.3776 13.3615 26.292 13.3615 24.9531C13.3615 24.2277 13.682 23.5793 14.1839 23.1346Z"
      fill="#4E37D3"/>
   <defs>
      <linearGradient id="paint0_linear_16_9" x1="36.6335" y1="6.45574" x2="36.6335" y2="41.222"
                      gradientUnits="userSpaceOnUse">
         <stop stop-color="#4E37D3"/>
         <stop offset="1" stop-color="#3ECC99"/>
      </linearGradient>
      <linearGradient id="paint1_linear_16_9" x1="11.364" y1="41.1972" x2="11.364" y2="6.45325"
                      gradientUnits="userSpaceOnUse">
         <stop stop-color="#4E37D3"/>
         <stop offset="1" stop-color="#3ECC99"/>
      </linearGradient>
   </defs>
</svg>
