<svg width="48" height="48" viewBox="0 0 48 48" fill="none" xmlns="http://www.w3.org/2000/svg">
    <path
        d="M0 8C0 3.58172 3.58172 0 8 0H40C44.4183 0 48 3.58172 48 8V40C48 44.4183 44.4183 48 40 48H8C3.58172 48 0 44.4183 0 40V8Z"
        fill="url(#paint0_linear_11_744)"/>
    <path
        d="M26.0155 36.3156C25.3895 36.3156 24.8826 35.8088 24.8826 35.1828C24.8826 34.5568 25.3895 34.05 26.0155 34.05C28.7501 34.05 31.4383 32.9139 33.3911 30.9332C35.3522 28.9442 36.4106 26.3291 36.3725 23.5717C36.3625 22.891 36.2864 22.2103 36.1472 21.5462C36.0628 21.1438 36.2019 20.7281 36.5116 20.4582C37.2884 19.7825 37.734 18.8053 37.734 17.7785C37.734 15.8193 36.1406 14.2261 34.1812 14.2261C33.5534 14.2261 32.9356 14.3934 32.394 14.7081C32.0379 14.9151 31.599 14.9134 31.2445 14.7048C29.6578 13.7641 27.8358 13.2656 25.9791 13.2656C25.353 13.2656 24.8462 12.7588 24.8462 12.1328C24.8462 11.5068 25.353 11 25.9791 11C28.0313 11 30.0487 11.4985 31.8507 12.4475C32.5828 12.1278 33.3779 11.9606 34.1812 11.9606C37.3895 11.9606 39.9998 14.5706 39.9998 17.7785C39.9998 19.2359 39.4516 20.632 38.4793 21.6986C38.577 22.3064 38.63 22.9241 38.6383 23.5402C38.6864 26.9088 37.3961 30.1001 35.006 32.5247C32.6309 34.9344 29.353 36.3173 26.0172 36.3173L26.0155 36.3156Z"
        fill="white"/>
    <path
        d="M30.542 23.0898L28.5478 21.0676C28.3309 20.7977 27.9979 20.6238 27.6236 20.6238C26.9677 20.6238 26.436 21.1554 26.436 21.8112C26.436 22.0315 26.4957 22.2385 26.6017 22.4157C26.6099 22.4306 26.6215 22.4439 26.6298 22.4588H26.6282L28.041 25.0523C28.311 25.5673 28.8509 25.9184 29.4737 25.9184C30.3665 25.9184 31.0903 25.1947 31.0903 24.302C31.0903 23.8185 30.8766 23.3862 30.542 23.0898Z"
        fill="white"/>
    <path
        d="M21.9826 36.3156C22.6087 36.3156 23.1155 35.8088 23.1155 35.1828C23.1155 34.5568 22.6087 34.05 21.9826 34.05C19.248 34.05 16.5598 32.9139 14.607 30.9332C12.646 28.9442 11.5876 26.3291 11.6257 23.5717C11.6356 22.891 11.7118 22.2103 11.8509 21.5462C11.9354 21.1438 11.7963 20.7281 11.4865 20.4582C10.7097 19.7825 10.2642 18.8053 10.2642 17.7785C10.2642 15.8193 11.8576 14.2261 13.817 14.2261C14.4447 14.2261 15.0625 14.3934 15.6041 14.7081C15.9602 14.9151 16.3992 14.9134 16.7536 14.7048C18.3404 13.7641 20.1623 13.2656 22.019 13.2656C22.6451 13.2656 23.152 12.7588 23.152 12.1328C23.1536 11.5068 22.6468 11 22.0207 11C19.9685 11 17.9511 11.4985 16.1491 12.4475C15.417 12.1278 14.6219 11.9606 13.8186 11.9606C10.6104 11.9606 8 14.5706 8 17.7785C8 19.2359 8.54824 20.632 9.5205 21.6986C9.42277 22.3064 9.36977 22.9241 9.36149 23.5402C9.31346 26.9088 10.6037 30.1001 12.9938 32.5247C15.3689 34.9344 18.6468 36.3173 21.9826 36.3173V36.3156Z"
        fill="white"/>
    <path
        d="M17.456 23.0898L19.4502 21.0676C19.6671 20.7977 20.0001 20.6238 20.3744 20.6238C21.0303 20.6238 21.562 21.1554 21.562 21.8112C21.562 22.0315 21.5023 22.2385 21.3963 22.4157C21.388 22.4306 21.3765 22.4439 21.3682 22.4588H21.3698L19.957 25.0523C19.687 25.5673 19.1471 25.9184 18.5243 25.9184C17.6315 25.9184 16.9077 25.1947 16.9077 24.302C16.9077 23.8185 17.1214 23.3862 17.456 23.0898Z"
        fill="white"/>
    <defs>
        <linearGradient id="paint0_linear_11_744" x1="44.726" y1="1.73515" x2="2.5" y2="45"
                        gradientUnits="userSpaceOnUse">
            <stop stop-color="#3ECC99"/>
            <stop offset="1" stop-color="#4E37D3"/>
        </linearGradient>
    </defs>
</svg>
