<svg width="81" height="18" viewBox="0 0 81 18" fill="none" xmlns="http://www.w3.org/2000/svg">
    <g id="Group">
        <g id="Group_2">
            <path id="Vector"
                  d="M78.8501 5.91007C79.3243 6.17698 79.6917 6.56636 79.9587 7.08448C80.2256 7.6026 80.3575 8.2212 80.3575 8.94657V13.6536H78.3288V9.22291C78.3288 8.58546 78.1686 8.0956 77.8514 7.75332C77.5342 7.41105 77.0977 7.23834 76.5481 7.23834C75.9985 7.23834 75.5463 7.41105 75.2228 7.75332C74.8994 8.0956 74.7392 8.58546 74.7392 9.22291V13.6536H72.7104V2.93323H74.7392V6.62602C74.9999 6.27746 75.3485 6.00427 75.7818 5.80644C76.2152 5.60862 76.6989 5.50813 77.2296 5.50813C77.8389 5.50813 78.379 5.64002 78.8532 5.90693L78.8501 5.91007Z"
                  fill="#11024D"/>
            <path id="Vector_2"
                  d="M10.6388 7.51785C10.9686 6.90552 11.4176 6.42822 11.9924 6.09223C12.5671 5.7531 13.2077 5.58667 13.9112 5.58667C14.6147 5.58667 15.2113 5.7374 15.7232 6.03571C16.2351 6.33402 16.6151 6.71084 16.8664 7.16615V5.71855H18.1979V13.6568H16.8664V12.1809C16.6057 12.6457 16.2163 13.0288 15.7013 13.3334C15.1831 13.638 14.5832 13.7887 13.8986 13.7887C13.214 13.7887 12.5576 13.616 11.9861 13.2674C11.4176 12.9189 10.9686 12.4321 10.6388 11.8041C10.3091 11.1761 10.1458 10.4633 10.1458 9.65942C10.1458 8.85554 10.3091 8.13645 10.6388 7.52413V7.51785ZM16.5052 8.10505C16.2634 7.66229 15.9368 7.32002 15.5285 7.08451C15.1171 6.849 14.668 6.72968 14.175 6.72968C13.6819 6.72968 13.2328 6.84586 12.8277 7.07823C12.4226 7.3106 12.0991 7.6466 11.8573 8.09249C11.6155 8.53525 11.4962 9.05965 11.4962 9.65628C11.4962 10.2529 11.6155 10.793 11.8573 11.242C12.0991 11.6911 12.4226 12.0334 12.8277 12.2689C13.2328 12.5044 13.6819 12.6237 14.175 12.6237C14.668 12.6237 15.1203 12.5044 15.5285 12.2689C15.9399 12.0334 16.2634 11.6879 16.5052 11.242C16.747 10.793 16.8664 10.2686 16.8664 9.66884C16.8664 9.06907 16.747 8.54781 16.5052 8.10505Z"
                  fill="#11024D"/>
            <path id="Vector_3"
                  d="M26.6459 6.44702C27.2458 7.03108 27.5441 7.87264 27.5441 8.97482V13.6536H26.2408V9.16323C26.2408 8.37192 26.0429 7.76587 25.6472 7.3451C25.2515 6.92432 24.7114 6.71393 24.0236 6.71393C23.3359 6.71393 22.7768 6.9306 22.3654 7.36708C21.954 7.80041 21.7499 8.43472 21.7499 9.26371V13.6536H20.4309V5.71537H21.7499V6.84582C22.0106 6.44074 22.3654 6.12673 22.8145 5.90378C23.2636 5.68083 23.7598 5.57092 24.3 5.57092C25.2641 5.57092 26.0492 5.86296 26.6459 6.44702Z"
                  fill="#11024D"/>
            <path id="Vector_4"
                  d="M29.7016 7.51785C30.0313 6.90552 30.4804 6.42822 31.0551 6.09223C31.6298 5.7531 32.2736 5.58667 32.9896 5.58667C33.6083 5.58667 34.183 5.72798 34.7138 6.01373C35.2445 6.29948 35.6496 6.67315 35.9291 7.13789V2.9364H37.2607V13.6537H35.9291V12.1621C35.6685 12.6363 35.2822 13.0225 34.7703 13.3271C34.2584 13.6317 33.6586 13.7824 32.9739 13.7824C32.2893 13.7824 31.6298 13.6097 31.0551 13.2611C30.4804 12.9126 30.0282 12.4259 29.7016 11.7978C29.3718 11.1698 29.2085 10.457 29.2085 9.65313C29.2085 8.84926 29.3718 8.13017 29.7016 7.51785ZM35.568 8.10505C35.3261 7.66229 34.9995 7.32002 34.5913 7.08451C34.1799 6.849 33.7308 6.72968 33.2377 6.72968C32.7447 6.72968 32.2956 6.84586 31.8905 7.07823C31.4853 7.3106 31.1619 7.64659 30.9201 8.09249C30.6782 8.53525 30.5589 9.05965 30.5589 9.65628C30.5589 10.2529 30.6782 10.793 30.9201 11.242C31.1619 11.6911 31.4853 12.0334 31.8905 12.2689C32.2956 12.5044 32.7447 12.6237 33.2377 12.6237C33.7308 12.6237 34.1799 12.5044 34.5913 12.2689C35.0027 12.0334 35.3261 11.6879 35.568 11.242C35.8098 10.793 35.9291 10.2686 35.9291 9.66884C35.9291 9.06907 35.8098 8.54781 35.568 8.10505Z"
                  fill="#11024D"/>
            <path id="Vector_5"
                  d="M39.4935 7.51785C39.8202 6.90552 40.2724 6.42822 40.8471 6.09223C41.4218 5.7531 42.0625 5.58667 42.7659 5.58667C43.4694 5.58667 44.0661 5.7374 44.578 6.03571C45.0899 6.33402 45.4699 6.71084 45.7211 7.16615V5.71855H47.0527V13.6568H45.7211V12.1809C45.4605 12.6457 45.071 13.0288 44.556 13.3334C44.0378 13.638 43.438 13.7887 42.7534 13.7887C42.0687 13.7887 41.4124 13.616 40.8408 13.2674C40.2724 12.9189 39.8233 12.4321 39.4935 11.8041C39.1638 11.1761 39.0005 10.4633 39.0005 9.65942C39.0005 8.85554 39.1638 8.13645 39.4935 7.52413V7.51785ZM45.36 8.10505C45.1181 7.66229 44.7915 7.32002 44.3833 7.08451C43.9719 6.849 43.5228 6.72968 43.0297 6.72968C42.5367 6.72968 42.0876 6.84586 41.6825 7.07823C41.2773 7.3106 40.9539 7.64659 40.7121 8.09249C40.4702 8.53525 40.3509 9.05965 40.3509 9.65628C40.3509 10.2529 40.4702 10.793 40.7121 11.242C40.9539 11.6911 41.2773 12.0334 41.6825 12.2689C42.0876 12.5044 42.5367 12.6237 43.0297 12.6237C43.5228 12.6237 43.9719 12.5044 44.3833 12.2689C44.7947 12.0334 45.1181 11.6879 45.36 11.242C45.6018 10.793 45.7211 10.2686 45.7211 9.66884C45.7211 9.06907 45.6018 8.54781 45.36 8.10505Z"
                  fill="#11024D"/>
            <path id="Vector_6"
                  d="M51.4023 4.69173V10.8432C51.4023 11.1478 51.4745 11.3676 51.6221 11.5058C51.7697 11.6408 52.0178 11.7099 52.3664 11.7099H53.4279V13.638H51.9896C50.0613 13.638 49.1003 12.7022 49.1003 10.8307V4.69487H51.4369V2.81707H49.1003V0.581299H49.1663C50.4036 0.581299 51.4023 1.583 51.4023 2.81707H53.4279C53.4279 3.85331 52.5863 4.69487 51.5499 4.69487H51.4023V4.69173Z"
                  fill="#11024D"/>
            <path id="Vector_7"
                  d="M62.4505 10.2497H56.5841C56.6312 10.8307 56.8353 11.2828 57.1934 11.6126C57.5514 11.9423 57.991 12.1056 58.5124 12.1056C59.2661 12.1056 59.8031 11.7821 60.1203 11.1353H62.3061C62.0737 11.9077 61.6309 12.542 60.9745 13.0413C60.3181 13.5375 59.511 13.7887 58.5563 13.7887C57.7838 13.7887 57.0897 13.616 56.4773 13.2737C55.8649 12.9314 55.3845 12.4447 55.0421 11.8167C54.6998 11.1886 54.5271 10.4664 54.5271 9.64369C54.5271 8.82098 54.6967 8.08305 55.0327 7.45817C55.3719 6.83014 55.843 6.34656 56.4522 6.01057C57.0615 5.67143 57.7618 5.505 58.5532 5.505C59.3446 5.505 59.9978 5.66829 60.6039 5.998C61.2069 6.32772 61.6748 6.79246 62.0077 7.39536C62.3406 7.99827 62.5071 8.69223 62.5071 9.47413C62.5071 9.76302 62.4882 10.0237 62.4505 10.256V10.2497ZM60.4092 8.88692C60.3998 8.36566 60.2114 7.94802 59.8439 7.63401C59.4765 7.32 59.0274 7.16299 58.4967 7.16299C57.9942 7.16299 57.5702 7.31372 57.2279 7.61831C56.8856 7.9229 56.6752 8.34368 56.5967 8.88692H60.4061H60.4092Z"
                  fill="#11024D"/>
            <path id="Vector_8"
                  d="M63.9736 7.46136C64.3128 6.83961 64.7807 6.35603 65.3774 6.01376C65.9772 5.67149 66.6619 5.49878 67.4344 5.49878C68.4299 5.49878 69.2527 5.74685 69.9028 6.24613C70.556 6.74227 70.9926 7.44252 71.2124 8.34059H69.0266C68.9104 7.99204 68.7157 7.71885 68.4394 7.52102C68.163 7.32319 67.8238 7.22271 67.4187 7.22271C66.8377 7.22271 66.3792 7.4331 66.0432 7.85388C65.704 8.27465 65.5376 8.87128 65.5376 9.64375C65.5376 10.4162 65.7072 10.9971 66.0432 11.4179C66.3824 11.8387 66.8409 12.0491 67.4187 12.0491C68.2384 12.0491 68.7754 11.6817 69.0266 10.9469H71.2124C70.9894 11.8167 70.5498 12.5075 69.8934 13.0194C69.237 13.5312 68.4174 13.7887 67.4313 13.7887C66.6587 13.7887 65.9741 13.616 65.3743 13.2737C64.7744 12.9315 64.3065 12.4479 63.9705 11.8261C63.6313 11.2044 63.4648 10.4759 63.4648 9.64689C63.4648 8.81789 63.6344 8.08938 63.9705 7.46764L63.9736 7.46136Z"
                  fill="#11024D"/>
        </g>
        <path id="Vector_9"
              d="M2.82222 6.04199C3.33726 5.7374 3.94023 5.58667 4.62486 5.58667C5.30948 5.58667 5.96898 5.75624 6.54369 6.09223C7.1184 6.43136 7.57063 6.90552 7.89724 7.51785C8.22699 8.13017 8.39029 8.84298 8.39029 9.65313C8.39029 10.4633 8.22699 11.1698 7.89724 11.7978C7.56749 12.4259 7.1184 12.9126 6.54369 13.2611C5.96898 13.6097 5.32832 13.7824 4.62486 13.7824C3.92139 13.7824 3.35296 13.6317 2.83478 13.3271C2.31661 13.0225 1.92404 12.6425 1.65396 12.1904V17.4187H0.334961V5.71542H1.65396V7.17871C1.91462 6.72654 2.30404 6.34658 2.81908 6.04199H2.82222ZM6.68187 8.09249C6.44005 7.64974 6.11344 7.3106 5.70518 7.07823C5.29378 6.84586 4.84469 6.72968 4.35163 6.72968C3.85858 6.72968 3.42205 6.849 3.01065 7.08451C2.59925 7.32002 2.27264 7.66544 2.02454 8.11447C1.77958 8.56351 1.65396 9.08163 1.65396 9.67198C1.65396 10.2623 1.77644 10.7961 2.02454 11.2452C2.2695 11.6942 2.59925 12.0365 3.01065 12.272C3.42205 12.5075 3.868 12.6268 4.35163 12.6268C4.83527 12.6268 5.29692 12.5075 5.70518 12.272C6.11659 12.0365 6.44005 11.6911 6.68187 11.2452C6.92369 10.7961 7.04303 10.2686 7.04303 9.65942C7.04303 9.05023 6.92369 8.53839 6.68187 8.09563V8.09249Z"
              fill="#11024D"/>
    </g>
</svg>
