<svg width="31" height="24" viewBox="0 0 31 24" fill="none" xmlns="http://www.w3.org/2000/svg">
    <g id="Group 1">
        <path id="Vector"
              d="M17.0785 23.9984C16.485 23.9984 16.0045 23.518 16.0045 22.9246C16.0045 22.3311 16.485 21.8507 17.0785 21.8507C19.6708 21.8507 22.2191 20.7737 24.0703 18.8961C25.9293 17.0105 26.9327 14.5316 26.8966 11.9176C26.8871 11.2723 26.8149 10.6271 26.683 9.99751C26.6029 9.61601 26.7348 9.22195 27.0284 8.96605C27.7648 8.32551 28.1872 7.39923 28.1872 6.42585C28.1872 4.56859 26.6767 3.05828 24.8193 3.05828C24.2242 3.05828 23.6385 3.21685 23.1251 3.51514C22.7875 3.71139 22.3714 3.70982 22.0354 3.512C20.5312 2.62027 18.8041 2.14771 17.0439 2.14771C16.4504 2.14771 15.97 1.6673 15.97 1.07385C15.97 0.480408 16.4504 0 17.0439 0C18.9893 0 20.9018 0.472558 22.6101 1.37215C23.3041 1.06914 24.0577 0.910578 24.8193 0.910578C27.8606 0.910578 30.3352 3.38484 30.3352 6.42585C30.3352 7.80742 29.8154 9.1309 28.8938 10.142C28.9864 10.7181 29.0367 11.3037 29.0445 11.8877C29.09 15.081 27.8669 18.1064 25.6012 20.4048C23.3496 22.6891 20.2423 24 17.0801 24L17.0785 23.9984Z"
              fill="url(#paint0_linear_209_25)"/>
        <path id="Vector_2"
              d="M21.3697 11.4607L19.4792 9.5438C19.2735 9.28789 18.9579 9.12305 18.6031 9.12305C17.9813 9.12305 17.4773 9.627 17.4773 10.2487C17.4773 10.4575 17.5338 10.6538 17.6343 10.8217C17.6422 10.8359 17.6532 10.8484 17.661 10.8626H17.6594L18.9988 13.3211C19.2547 13.8094 19.7666 14.1422 20.3569 14.1422C21.2032 14.1422 21.8894 13.4561 21.8894 12.6099C21.8894 12.1515 21.6868 11.7417 21.3697 11.4607Z"
              fill="#3ECC99"/>
        <path id="Vector_3"
              d="M13.2551 23.9984C13.8486 23.9984 14.3291 23.518 14.3291 22.9246C14.3291 22.3311 13.8486 21.8507 13.2551 21.8507C10.6628 21.8507 8.11447 20.7737 6.26328 18.8961C4.40423 17.0105 3.40092 14.5316 3.43703 11.9176C3.44645 11.2723 3.51868 10.6271 3.65057 9.99751C3.73065 9.61601 3.59875 9.22195 3.30514 8.96605C2.56874 8.32551 2.14638 7.39923 2.14638 6.42585C2.14638 4.56859 3.65685 3.05828 5.51432 3.05828C6.1094 3.05828 6.69506 3.21685 7.2085 3.51514C7.54608 3.71139 7.96216 3.70982 8.29817 3.512C9.80237 2.62027 11.5295 2.14771 13.2896 2.14771C13.8832 2.14771 14.3636 1.6673 14.3636 1.07385C14.3652 0.480408 13.8847 0 13.2912 0C11.3458 0 9.43338 0.472558 7.72507 1.37215C7.03107 1.06914 6.27741 0.910578 5.51589 0.910578C2.47454 0.910578 0 3.38484 0 6.42585C0 7.80742 0.519715 9.1309 1.44139 10.142C1.34875 10.7181 1.2985 11.3037 1.29065 11.8877C1.24512 15.081 2.46826 18.1064 4.73396 20.4048C6.98554 22.6891 10.0928 24 13.2551 24V23.9984Z"
              fill="url(#paint1_linear_209_25)"/>
        <path id="Vector_4"
              d="M8.96381 11.4607L10.8543 9.5438C11.0599 9.28789 11.3755 9.12305 11.7304 9.12305C12.3522 9.12305 12.8562 9.627 12.8562 10.2487C12.8562 10.4575 12.7997 10.6538 12.6992 10.8217C12.6913 10.8359 12.6803 10.8484 12.6725 10.8626H12.674L11.3347 13.3211C11.0788 13.8094 10.5669 14.1422 9.97655 14.1422C9.13024 14.1422 8.44409 13.4561 8.44409 12.6099C8.44409 12.1515 8.64664 11.7417 8.96381 11.4607Z"
              fill="#4E37D3"/>
    </g>
    <defs>
        <linearGradient id="paint0_linear_209_25" x1="23.1518" y1="0.919997" x2="23.1518" y2="22.8916"
                        gradientUnits="userSpaceOnUse">
            <stop stop-color="#4E37D3"/>
            <stop offset="1" stop-color="#3ECC99"/>
        </linearGradient>
        <linearGradient id="paint1_linear_209_25" x1="7.18181" y1="22.8759" x2="7.18181" y2="0.918428"
                        gradientUnits="userSpaceOnUse">
            <stop stop-color="#4E37D3"/>
            <stop offset="1" stop-color="#3ECC99"/>
        </linearGradient>
    </defs>
</svg>
